<svg xmlns="http://www.w3.org/2000/svg" viewBox="0 0 500 500">
<g id="freepik--Plant--inject-8"><line x1="49.53" y1="407.67" x2="49.56" y2="358.91" style="fill:none;stroke:#263238;stroke-linecap:round;stroke-linejoin:round"></line><polyline points="27.64 370.5 49.12 387.42 64.16 368.32" style="fill:none;stroke:#263238;stroke-linecap:round;stroke-linejoin:round"></polyline><path d="M49.21,366.38A25.46,25.46,0,0,1,42.12,355c-2-7.07,7.58-19.91,7.58-19.91s6.27,13,6.94,19.19S49.21,366.38,49.21,366.38Z" style="fill:#605CA8;stroke:#263238;stroke-linecap:round;stroke-miterlimit:10"></path><path d="M58.73,375a83.24,83.24,0,0,1,.78-11c.72-3.93,6.28-6.42,10.32-7.4s11.79.17,11.79.17a20.82,20.82,0,0,1-7.23,12.76C68,374.66,58.73,375,58.73,375Z" style="fill:#605CA8;stroke:#263238;stroke-linecap:round;stroke-miterlimit:10"></path><path d="M38.25,378s2.14-3.72-5.87-11.83-21.26-1.44-21.26-1.44,6.39,9.31,10.41,12.36S38.25,378,38.25,378Z" style="fill:#605CA8;stroke:#263238;stroke-linecap:round;stroke-miterlimit:10"></path><path d="M48.92,397.32a22.22,22.22,0,0,0-12.35-8c-7.95-1.77-12.9-.49-12.9-.49s5.08,10.42,10.92,11.86S48.92,397.32,48.92,397.32Z" style="fill:#605CA8;stroke:#263238;stroke-linecap:round;stroke-miterlimit:10"></path><path d="M48.92,397.32a10.59,10.59,0,0,1,4.26-4.4c3.34-2.1,12.21-2.65,12.21-2.65s-.23,4.43-5.48,6.82S48.92,397.32,48.92,397.32Z" style="fill:#605CA8;stroke:#263238;stroke-linecap:round;stroke-miterlimit:10"></path><line x1="38.25" y1="378.01" x2="18.36" y2="365.84" style="fill:none;stroke:#263238;stroke-linecap:round;stroke-miterlimit:10"></line><line x1="49.21" y1="366.38" x2="49.21" y2="345.7" style="fill:none;stroke:#263238;stroke-linecap:round;stroke-miterlimit:10"></line><line x1="58.73" y1="375.01" x2="69.55" y2="362.96" style="fill:none;stroke:#263238;stroke-linecap:round;stroke-miterlimit:10"></line><polyline points="36.86 395.24 48.92 397.32 56.19 395.03" style="fill:none;stroke:#263238;stroke-linecap:round;stroke-miterlimit:10"></polyline><polygon points="62.83 402.79 32.8 402.79 35.3 426.17 60.33 426.17 62.83 402.79" style="fill:#263238;stroke:#263238;stroke-linecap:round;stroke-miterlimit:10"></polygon></g><g id="freepik--Character--inject-8"><path d="M258.84,276.06l2.63,13.11s-17.7,5.25-29.83,8.2-18.86,5-17.88,11.27,0,20,0,20L200.5,387.18l-1,4.26L227.05,396,232,379.64s2.95,5.24,2.95,8.85-3.28,37.8-3.28,37.8H333.91l11.47-71.56s8.19-37.37,8.85-42.94,3.6-11.8-1.31-16.06-49.83-6.88-50.81-7.21-3.6-1.31-3.6-1.31l-1-9.51a39.68,39.68,0,0,1-16.39,3.93c-8.85,0-22-8.85-22-8.85Z" style="fill:#605CA8;stroke:#263238;stroke-miterlimit:10"></path><path d="M263,379.89s18.45,7.76,31.06,9.38" style="fill:none;stroke:#263238;stroke-miterlimit:10"></path><path d="M231.64,336.05s-5.9,24.58-4.92,32.12A19.88,19.88,0,0,0,232,379.64" style="fill:none;stroke:#263238;stroke-miterlimit:10"></path><path d="M227.32,403.93s3-4.15-1.16-9.46-15-7.61-20.06-6.92-8.54,4.16-12.92,8.31-8.77,7.61-8.77,7.61-6.92-6-9.69-6.92-12.45,8.3-15,10.84-5.07,3,.69,6.69,7.38,3.23,12.92,3.46,20.53-1.15,23.07-2.54,10.61-.92,16.61-3C222.88,408.59,222.93,408.31,227.32,403.93Z" style="fill:#fff;stroke:#263238;stroke-miterlimit:10"></path><path d="M152,404.45s-6.38,1.06-8.24,2.39-5.58,4.79-4,6.65,6.11-2.4,6.91-2.4S156,413,156,413,155.2,405.78,152,404.45Z" style="fill:#fff;stroke:#263238;stroke-miterlimit:10"></path><path d="M159.18,397s-8.24,1.59-9,4,.26,14.62,1.06,16.22,3.19,1.59,4.25-.27,1.06-9.57,1.86-11.43S159.18,397,159.18,397Z" style="fill:#fff;stroke:#263238;stroke-miterlimit:10"></path><path d="M169,395.94s-6.38-2.39-9.31-1.32-4.78,19.4-3.19,20.46a3.5,3.5,0,0,0,5-2.13c.8-2.39,2.4-8.23,2.4-8.23l4-3.19" style="fill:#fff;stroke:#263238;stroke-miterlimit:10"></path><path d="M176.6,393.65s8.43,8.47,10.8,9.83a14.69,14.69,0,0,0,7.54,1.93c3.13-.11,5.82-2.7,8.95-1.06a3,3,0,0,1,1.7,2c.22,1.3-.79,2.46-1.82,3.28a17,17,0,0,1-15.19,2.95,2.38,2.38,0,0,0-1-.16,2.2,2.2,0,0,0-.91.47,19.72,19.72,0,0,1-5.26,3.23c-3.74,1.28-8.51.16-8.51.16" style="fill:#fff;stroke:#263238;stroke-miterlimit:10"></path><path d="M172.88,404.26s2.29,2.29,5.35-1" style="fill:none;stroke:#263238;stroke-miterlimit:10"></path><path d="M173.8,399.13s-2.39,10.37-3.45,12.23-3.73,2.66-5.32.8,2.13-16,2.39-18.08a2.41,2.41,0,0,1,2.39-2.12s4-.53,5.59.26,4.25,6.12,4.25,6.12" style="fill:#fff;stroke:#263238;stroke-miterlimit:10"></path><path d="M302.11,288.52c-1-.33-3.6-1.31-3.6-1.31l-1-9.51a39.68,39.68,0,0,1-16.39,3.93c-8.85,0-22-8.85-22-8.85l-.33,3.28,2.63,13.11s-7.14,2.12-15.45,4.42c3.88,8.62,14.46,29.47,27.9,33.61,13.21,4.06,32.51-24.54,40.54-37.63C307.56,289,302.44,288.63,302.11,288.52Z" style="fill:#fff;stroke:#263238;stroke-miterlimit:10"></path><polygon points="263.48 298.91 252.92 291.54 261.47 289.17 263.48 298.91" style="fill:#263238;stroke:#263238;stroke-miterlimit:10"></polygon><polygon points="261.47 289.17 263.48 298.91 279.94 288.66 258.85 276.06 261.47 289.17" style="fill:#263238;stroke:#263238;stroke-miterlimit:10"></polygon><line x1="298.51" y1="287.21" x2="299.63" y2="295.13" style="fill:none;stroke:#263238;stroke-miterlimit:10"></line><path d="M302.6,303s-15.92,4.32-18.62,5.13-5.12,1.89-5.66,3.24" style="fill:none;stroke:#263238;stroke-miterlimit:10"></path><line x1="257.27" y1="305.65" x2="269.89" y2="311.34" style="fill:none;stroke:#263238;stroke-miterlimit:10"></line><path d="M306,241.12s1.91-4.37,3.82-.82,3.28,7.92.82,12a21.24,21.24,0,0,1-4.64,5.73L303.8,240.3Z" style="fill:#fff;stroke:#263238;stroke-miterlimit:10"></path><path d="M242.64,251.22a16.4,16.4,0,0,0,.27,11.47c2.46,6.28,9.56,5.74,9.56,5.74s6.55,10.37,11.47,15,19.11,12.29,24.85,10.38,13.92-13.65,16.38-23.76.27-24.84.27-24.84,1.09-9-1.91-16.38-6.83-10.38-13.65-9.56-24.3,3.28-33.86,9.83-11.74,11.47-11.74,14.47S242.64,251.22,242.64,251.22Z" style="fill:#fff;stroke:#263238;stroke-miterlimit:10"></path><path d="M295.89,227.74s2.73,6,5.18,7.65l2.46,1.64s1.37,6,1.91,8.19,2.46,1.36,2.73-1.37.27-6.28.27-6.28a18,18,0,0,0,5.74-8.19c1.91-5.46,3.82-13.11-2.19-19.39s-12.56-7.64-15.56-6.82S293.43,219.82,295.89,227.74Z" style="fill:#263238;stroke:#263238;stroke-miterlimit:10"></path><path d="M242.64,251.22a3,3,0,0,1,4.1.55c1.91,2.18,1.09,5.19,2.18,6.28s3.55,1.91,3.82-1.36-1.91-8.47-.82-10.93,4.65-5.18,7.92-3.27,9,6.28,13.11,1.09,3.82-13.38,6.83-13.65,2.45,2.73,9.55,1.91,10.1-2.46,10.65-17.48-7.1-27.85-17.2-31.12S245.1,185.42,235,199.62s-9.56,28.67-5.46,34.4S243.46,249.86,242.64,251.22Z" style="fill:#263238;stroke:#263238;stroke-miterlimit:10"></path><path d="M289.12,205.34s-10.66-3.1-15.13,2.06-4.81,16.5-10,18.21-8.94-3.43-12.72,0-1,9.28-6.19,11.35-11.68-3.1-11.68-3.1" style="fill:none;stroke:#737373;stroke-miterlimit:10"></path><path d="M257.84,215a12,12,0,0,0-10,2.41c-4.46,3.78-.34,9.28-6.53,10.31s-10.65-3.44-10.65-3.44" style="fill:none;stroke:#737373;stroke-miterlimit:10"></path><path d="M286.6,257.78l.82,6.82s5.19,6.28-.55,7.65-5.46-2.19-5.46-2.19" style="fill:none;stroke:#263238;stroke-miterlimit:10"></path><path d="M276,276.07s6.56,3.82,11.47,3,7.92-6.55,7.92-6.55" style="fill:none;stroke:#263238;stroke-miterlimit:10"></path><path d="M273.5,259.28c0,1.88-1,3.41-2.19,3.41s-2.18-1.53-2.18-3.41,1-3.41,2.18-3.41S273.5,257.39,273.5,259.28Z" style="fill:#263238"></path><path d="M295.61,255.18c0,1.89-1,3.42-2.18,3.42s-2.19-1.53-2.19-3.42,1-3.41,2.19-3.41S295.61,253.3,295.61,255.18Z" style="fill:#263238"></path><path d="M261.75,252.59s6-4.64,13.38-3.28" style="fill:none;stroke:#263238;stroke-miterlimit:10"></path><path d="M288.51,246.86a9.73,9.73,0,0,1,9.83-2.19" style="fill:none;stroke:#263238;stroke-miterlimit:10"></path><path d="M277.52,252.56,262,255.47a2.58,2.58,0,0,0-2.05,3l1.1,5.41a2.84,2.84,0,0,0,3.38,2.22l14.4-3.09a2.85,2.85,0,0,0,2.24-3.07l-.54-5.16A2.59,2.59,0,0,0,277.52,252.56Z" style="fill:none;stroke:#263238;stroke-miterlimit:10"></path><path d="M289.26,250.13l15.92-2.71a2.17,2.17,0,0,1,2.67,2.13l.06,5.46a3.42,3.42,0,0,1-2.88,3.26l-14.9,2.17a2.39,2.39,0,0,1-2.85-2.1l-.55-5A3,3,0,0,1,289.26,250.13Z" style="fill:none;stroke:#263238;stroke-miterlimit:10"></path><path d="M281.21,256a5,5,0,0,1,5.64-.94" style="fill:none;stroke:#263238;stroke-miterlimit:10"></path><line x1="260.41" y1="260.65" x2="247.74" y2="254.24" style="fill:none;stroke:#263238;stroke-miterlimit:10"></line><path d="M325.06,329.82l-2.85,53.52s2,1,11.14,6.88,23.27,6.56,25.24,4.26-6.33-85.31-6.33-85.31" style="fill:#605CA8;stroke:#263238;stroke-miterlimit:10"></path><path d="M200.1,405.55s-.92.92-4.38,1.38-8.08-1.15-9.23,2.31,4.15,5.53,7.15,5.07a59.59,59.59,0,0,0,8.53-2.54s6.46.23,9.46,1.39,5.31,3,9.92,1.84,8.64-.36,10.09-2.26,5.37-4-6.17-7a45,45,0,0,0-20.53-.7Z" style="fill:#fff;stroke:#263238;stroke-miterlimit:10"></path><path d="M209.56,396.55s-4.16-1.38-6.46.23-5.54,13.61-6.46,17.07-.92,7.15.69,7.84,3.46-.69,4.61-3.69,7.62-16.15,8.31-17.76S212.32,396.09,209.56,396.55Z" style="fill:#fff;stroke:#263238;stroke-miterlimit:10"></path><path d="M219.84,397.34s-8.21-1.48-10.28-.79-7.15,12.92-7.39,15.22-2.76,9.92.24,10.61,4.84-2.07,6.22-4.84,4.16-11.53,5.77-13.61a14.6,14.6,0,0,1,4.38-3.46S222.28,398.82,219.84,397.34Z" style="fill:#fff;stroke:#263238;stroke-miterlimit:10"></path><path d="M357.09,397s8.06-2.51-4.4-9.72-25.24-8.19-29.5-6.56-67.95,22.2-67.95,22.2-30.81-4.91-35.4-5.57S213,401.6,211,405.53s-4.59,14.75-3.93,16.06,3.93.33,4.59-1.31,2.62-7.21,3.27-8.19,5.58-3.93,5.58-3.93l7.86,1.31s-5.19,6.92-9.35,9.45-2.53,5.31-.46,5.31,8.31-3.69,10.61-5.54,6.46-4.38,6.46-4.38a15.47,15.47,0,0,0,6.23,1.38,79.76,79.76,0,0,0,13.84-2.07c2.54-.69,58.57-3.7,65.95-5.32S347.64,403.93,357.09,397Z" style="fill:#fff;stroke:#263238;stroke-miterlimit:10"></path></g><g id="freepik--Device--inject-8"><rect x="78.74" y="422.36" width="186.32" height="3.41" style="fill:#9c9c9c;stroke:#263238;stroke-miterlimit:10"></rect><rect x="198.79" y="422.36" width="66.28" height="3.41" style="fill:#263238;stroke:#263238;stroke-miterlimit:10"></rect><path d="M201.24,422.36H80.88L66,338.72a3.88,3.88,0,0,1,3.82-4.56H182.31a3.88,3.88,0,0,1,3.82,3.2Z" style="fill:#263238;stroke:#263238;stroke-miterlimit:10"></path><path d="M199.1,422.36H78.74L63.88,338.72a3.87,3.87,0,0,1,3.82-4.56H180.17a3.87,3.87,0,0,1,3.82,3.2Z" style="fill:#9c9c9c;stroke:#263238;stroke-miterlimit:10"></path></g><g id="freepik--Books--inject-8"><path d="M458.6,409.61H378.12a8.15,8.15,0,0,0-8.14,8.15h0a8.15,8.15,0,0,0,8.14,8.14H458.6Z" style="fill:#fff;stroke:#263238;stroke-miterlimit:10"></path><path d="M377.19,417.76a8.14,8.14,0,0,1,8.14-8.15h-2.46a8.15,8.15,0,0,0,0,16.29h2.46A8.14,8.14,0,0,1,377.19,417.76Z" style="fill:#fff;stroke:#263238;stroke-miterlimit:10"></path><path d="M401.17,417.76a8.14,8.14,0,0,1,8.14-8.15h-2.46a8.15,8.15,0,0,0,0,16.29h2.46A8.14,8.14,0,0,1,401.17,417.76Z" style="fill:#fff;stroke:#263238;stroke-miterlimit:10"></path><polygon points="416.85 409.61 409.73 413.05 408.3 418.28 410.2 422.55 414.92 425.9 458.6 425.9 458.6 409.61 416.85 409.61" style="fill:#fff;stroke:#263238;stroke-miterlimit:10"></polygon><path d="M415.45,423.44a5.68,5.68,0,0,1,0-11.36h46v-2.47H414.92a8.15,8.15,0,0,0,0,16.29h46.56v-2.46Z" style="fill:#fff;stroke:#263238;stroke-miterlimit:10"></path><line x1="412.1" y1="416.38" x2="424.21" y2="416.38" style="fill:none;stroke:#263238;stroke-miterlimit:10"></line><line x1="420.41" y1="419.23" x2="429.19" y2="419.23" style="fill:none;stroke:#263238;stroke-miterlimit:10"></line><line x1="457.92" y1="416.14" x2="445.1" y2="416.14" style="fill:none;stroke:#263238;stroke-miterlimit:10"></line><line x1="450.08" y1="419.94" x2="437.5" y2="419.94" style="fill:none;stroke:#263238;stroke-miterlimit:10"></line><line x1="443.44" y1="416.38" x2="440.35" y2="416.38" style="fill:none;stroke:#263238;stroke-miterlimit:10"></line><path d="M458.6,392.93H378.12a8.15,8.15,0,0,0-8.14,8.15h0a8.15,8.15,0,0,0,8.14,8.14H458.6Z" style="fill:#9c9c9c;stroke:#263238;stroke-miterlimit:10"></path><path d="M377.19,401.08a8.14,8.14,0,0,1,8.14-8.15h-2.46a8.15,8.15,0,0,0,0,16.29h2.46A8.14,8.14,0,0,1,377.19,401.08Z" style="fill:#fff;stroke:#263238;stroke-miterlimit:10"></path><path d="M401.17,401.08a8.14,8.14,0,0,1,8.14-8.15h-2.46a8.15,8.15,0,0,0,0,16.29h2.46A8.14,8.14,0,0,1,401.17,401.08Z" style="fill:#fff;stroke:#263238;stroke-miterlimit:10"></path><polygon points="416.85 392.93 409.73 396.37 408.3 401.6 410.2 405.87 414.92 409.22 458.6 409.22 458.6 392.93 416.85 392.93" style="fill:#fff;stroke:#263238;stroke-miterlimit:10"></polygon><path d="M415.45,406.76a5.69,5.69,0,0,1,0-11.37h46v-2.46H414.92a8.15,8.15,0,0,0,0,16.29h46.56v-2.46Z" style="fill:#263238;stroke:#263238;stroke-linecap:round;stroke-miterlimit:10"></path><line x1="412.1" y1="399.7" x2="424.21" y2="399.7" style="fill:none;stroke:#263238;stroke-miterlimit:10"></line><line x1="420.41" y1="402.55" x2="429.19" y2="402.55" style="fill:none;stroke:#263238;stroke-miterlimit:10"></line><line x1="457.92" y1="399.46" x2="445.1" y2="399.46" style="fill:none;stroke:#263238;stroke-miterlimit:10"></line><line x1="450.08" y1="403.26" x2="437.5" y2="403.26" style="fill:none;stroke:#263238;stroke-miterlimit:10"></line><line x1="443.44" y1="399.7" x2="440.35" y2="399.7" style="fill:none;stroke:#263238;stroke-miterlimit:10"></line><polygon points="416.9 422.65 277.77 422.65 277.77 426.52 310.62 426.52 363.02 424.14 411.01 426.52 416.9 426.52 416.9 422.65" style="fill:#bababa;stroke:#263238;stroke-miterlimit:10"></polygon><polygon points="310.41 422.65 310.41 426.52 357.88 425.9 358.62 426.52 367.42 426.52 368.45 425.75 416.9 426.52 416.9 422.65 310.41 422.65" style="fill:#263238;stroke:#263238;stroke-miterlimit:10"></polygon><path d="M277.67,414.07s26.88-1.27,36.77-3.75,21.68-3,26.35-2.47a95.41,95.41,0,0,1,10.15,1.93s19.22-1.93,32.39-.83,14.55,13.45,14.55,13.45H280.67Z" style="fill:#fff;stroke:#263238;stroke-miterlimit:10"></path><path d="M362.37,422.65V414.5s-14.18-7.73-27.49-4.73-24.9,4.3-24.9,4.3v8.58Z" style="fill:#fff;stroke:#263238;stroke-miterlimit:10"></path><path d="M362.37,422.65V414.5s14.17-7.73,27.48-4.73,24.91,4.3,24.91,4.3v8.58Z" style="fill:#fff;stroke:#263238;stroke-miterlimit:10"></path><rect x="277.67" y="414.07" width="32.3" height="8.59" style="fill:#fff;stroke:#263238;stroke-miterlimit:10"></rect><path d="M332.11,416.2c4.66-.49,9.51-1,12.73-1.25,6.61-.57,15.52,3.16,15.52,3.16" style="fill:none;stroke:#263238;stroke-miterlimit:10"></path><path d="M320.11,417.54c1.66-.21,4.47-.53,7.7-.88" style="fill:none;stroke:#263238;stroke-miterlimit:10"></path><path d="M358.93,420.41s-6.9-2-12.65-1.15" style="fill:none;stroke:#263238;stroke-miterlimit:10"></path><path d="M348.58,412.65a53.93,53.93,0,0,0-11.79.86" style="fill:none;stroke:#263238;stroke-miterlimit:10"></path><path d="M392.27,417.3c-4.85-.45-10.78-.91-14.37-.91a53.82,53.82,0,0,0-12.36,1.44" style="fill:none;stroke:#263238;stroke-miterlimit:10"></path><path d="M400.33,418.11l-3.5-.37" style="fill:none;stroke:#263238;stroke-miterlimit:10"></path><path d="M369.85,415a25.49,25.49,0,0,1,14.09-.29" style="fill:none;stroke:#263238;stroke-miterlimit:10"></path><path d="M370.14,420.7a53.05,53.05,0,0,1,11.79-1.15c5.17.29,18.4,1.44,18.4,1.44" style="fill:none;stroke:#263238;stroke-miterlimit:10"></path></g></svg>